<svg width="12" height="21" viewBox="0 0 12 21" fill="none" xmlns="http://www.w3.org/2000/svg">
<g clip-path="url(#clip0_6_913)">
<path d="M4.4 14.7H6.2V16.5H4.4V14.7ZM5.6 4.5C8.81 4.632 10.208 7.872 8.3 10.302C7.802 10.902 6.998 11.298 6.602 11.802C6.2 12.3 6.2 12.9 6.2 13.5H4.4C4.4 12.498 4.4 11.652 4.802 11.052C5.198 10.452 6.002 10.098 6.5 9.702C7.952 8.358 7.592 6.456 5.6 6.3C5.12261 6.3 4.66477 6.48964 4.32721 6.82721C3.98964 7.16477 3.8 7.62261 3.8 8.1H2C2 7.14522 2.37928 6.22955 3.05442 5.55442C3.72955 4.87928 4.64522 4.5 5.6 4.5Z" fill="white"/>
</g>
<defs>
<clipPath id="clip0_6_913">
<rect width="12" height="12" fill="white" transform="translate(0 4.5)"/>
</clipPath>
</defs>
</svg>
