<svg width="10" height="10" viewBox="0 0 10 10" fill="none" xmlns="http://www.w3.org/2000/svg">
<g clip-path="url(#clip0_6_938)">
<path d="M6 4.53C5.895 4.675 5.82 4.835 5.75 5H3V4.25C3 4.11 3.11 4 3.25 4H5.75C5.89 4 6 4.11 6 4.25V4.53ZM9 3H0V0H9V3ZM8 1H1V2H8V1ZM5 8H1.5V3.5H0.5V9H5.015C5 8.95 5 8.9 5 8.85V8ZM10 7.15V8.9C10 9.2 9.7 9.5 9.35 9.5H6.6C6.3 9.5 6 9.2 6 8.85V7.1C6 6.8 6.3 6.5 6.6 6.5V5.75C6.6 5.05 7.3 4.5 8 4.5C8.7 4.5 9.4 5.05 9.4 5.75V6.5C9.7 6.5 10 6.8 10 7.15ZM8.75 5.75C8.75 5.35 8.4 5.1 8 5.1C7.6 5.1 7.25 5.35 7.25 5.75V6.5H8.75V5.75Z" fill="#6C757D"/>
</g>
<defs>
<clipPath id="clip0_6_938">
<rect width="10" height="10" fill="white"/>
</clipPath>
</defs>
</svg>
