<svg width="10" height="10" viewBox="0 0 10 10" fill="none" xmlns="http://www.w3.org/2000/svg">
<path d="M7.98516 5.40803C8.00252 5.27782 8.0112 5.14327 8.0112 5.00004C8.0112 4.86115 8.00252 4.72226 7.98082 4.59205L8.8619 3.90629C8.94002 3.84553 8.96172 3.72834 8.91398 3.64153L8.08065 2.20056C8.02856 2.10508 7.92006 2.07469 7.82457 2.10508L6.78724 2.52174C6.57023 2.35681 6.3402 2.21792 6.08412 2.11376L5.92787 1.01133C5.91051 0.907159 5.8237 0.833374 5.71954 0.833374H4.05287C3.9487 0.833374 3.86624 0.907159 3.84888 1.01133L3.69263 2.11376C3.43655 2.21792 3.20218 2.36115 2.9895 2.52174L1.95218 2.10508C1.85669 2.07035 1.74818 2.10508 1.6961 2.20056L0.867106 3.64153C0.815023 3.73268 0.832384 3.84553 0.91919 3.90629L1.80027 4.59205C1.77856 4.72226 1.7612 4.86549 1.7612 5.00004C1.7612 5.13459 1.76988 5.27782 1.79159 5.40803L0.910509 6.09379C0.832384 6.15456 0.810683 6.27174 0.858426 6.35855L1.69176 7.79952C1.74384 7.89501 1.85235 7.92539 1.94784 7.89501L2.98516 7.47834C3.20218 7.64327 3.43221 7.78216 3.68829 7.88633L3.84454 8.98876C3.86624 9.09292 3.9487 9.16671 4.05287 9.16671H5.71954C5.8237 9.16671 5.91051 9.09292 5.92353 8.98876L6.07978 7.88633C6.33586 7.78216 6.57023 7.64327 6.78291 7.47834L7.82023 7.89501C7.91572 7.92973 8.02422 7.89501 8.07631 7.79952L8.90964 6.35855C8.96172 6.26306 8.94002 6.15456 8.85756 6.09379L7.98516 5.40803ZM4.8862 6.56254C4.02683 6.56254 3.3237 5.85942 3.3237 5.00004C3.3237 4.14067 4.02683 3.43754 4.8862 3.43754C5.74558 3.43754 6.4487 4.14067 6.4487 5.00004C6.4487 5.85942 5.74558 6.56254 4.8862 6.56254Z" fill="#FFC107"/>
</svg>
